<svg version="1.1" id="Layer_1" xmlns="http://www.w3.org/2000/svg" xmlns:xlink="http://www.w3.org/1999/xlink" x="0px" y="0px"
	 width="100%" viewBox="0 0 250 109" enable-background="new 0 0 250 109" xml:space="preserve">
<path fill="#000000" opacity="1.000000" stroke="none" 
	d="
M251.000000,99.000000 
	C251.000000,102.661552 251.000000,106.323105 251.000000,109.988495 
	C167.788025,109.992325 84.576050,109.992325 1.000000,109.992325 
	C1.000000,92.647469 1.000000,75.292397 1.325934,57.174030 
	C2.300853,57.656868 3.182312,58.836143 3.562852,60.159466 
	C7.357524,73.355331 20.986984,80.995132 33.114536,80.997696 
	C56.610168,81.002663 80.106979,81.132492 103.600739,80.922905 
	C110.925743,80.857559 117.225021,77.564911 121.635429,71.696205 
	C129.551254,61.163017 137.057526,50.322968 144.872116,39.712170 
	C146.962952,36.873192 149.550507,34.400021 152.369461,31.244637 
	C157.369080,39.971729 162.243088,48.068954 166.652496,56.411743 
	C168.086517,59.124966 166.738861,61.126286 163.181290,61.034447 
	C158.019028,60.901188 152.845810,60.857502 147.686249,61.035534 
	C140.584259,61.280586 137.012039,64.892525 137.001877,71.481247 
	C136.994247,76.441772 140.763519,80.920288 145.506912,80.952225 
	C162.836243,81.068916 180.167358,81.073799 197.496597,80.950394 
	C202.601868,80.914047 205.980392,77.074173 205.995224,71.931923 
	C206.015411,64.933289 206.226440,57.924442 205.914444,50.939678 
	C205.730927,46.831055 207.249985,45.759926 211.116028,45.924160 
	C217.603119,46.199745 224.110428,46.009285 230.609207,45.996708 
	C236.440948,45.985420 239.946075,42.353607 239.998642,36.299767 
	C240.053528,29.981602 237.158112,27.015411 230.842346,27.005016 
	C219.177872,26.985813 207.513367,26.995884 195.848862,27.000824 
	C189.788971,27.003389 187.033066,29.789465 187.005630,35.993225 
	C186.978317,42.170994 186.999649,48.348980 186.999649,55.959373 
	C177.910583,40.322048 169.547958,26.080643 161.340897,11.750143 
	C157.501205,5.045623 149.864349,3.395638 145.774200,8.778188 
	C140.395859,15.855973 135.251129,23.110857 129.971176,30.263912 
	C123.045815,39.646088 116.220474,49.108578 109.014206,58.270741 
	C107.766937,59.856525 104.851280,60.866207 102.694588,60.886250 
	C82.033691,61.078281 61.370106,60.949669 40.707726,61.028099 
	C33.758762,61.054474 28.253925,59.016243 24.821037,52.422268 
	C21.236313,45.536640 21.167139,38.726219 25.298838,32.372269 
	C28.963745,26.736176 34.734879,24.757879 41.514919,24.931189 
	C51.839577,25.195105 62.176147,25.035166 72.507317,24.984600 
	C77.906212,24.958178 82.155914,20.554750 81.989677,15.326555 
	C81.790344,9.057197 78.788460,6.010372 72.734871,6.004265 
	C58.904125,5.990312 45.068268,6.230630 31.244192,5.926514 
	C20.169666,5.682886 6.665241,13.642367 2.939920,25.545309 
	C2.744009,26.171272 1.666882,26.521439 1.000000,27.000000 
	C1.000000,18.348295 1.000000,9.696589 1.000000,1.022442 
	C84.333328,1.022442 167.666656,1.022442 251.000000,1.022556 
	C251.000000,3.351958 251.000000,5.681245 250.687042,8.796965 
	C247.699692,6.837942 244.551941,5.861707 240.637161,5.917105 
	C225.991180,6.124357 211.340515,5.995743 196.691605,6.001804 
	C189.731949,6.004683 187.025253,8.600189 187.002167,15.259456 
	C186.980057,21.636806 190.290726,24.968250 196.814575,24.990555 
	C207.634674,25.027546 218.455750,25.079214 229.274948,24.973513 
	C236.724075,24.900732 244.543930,26.599239 251.000000,21.000000 
	C251.000000,43.020893 251.000000,65.041786 250.690186,87.821587 
	C249.864777,88.169830 249.250778,87.837906 248.849152,87.336021 
	C245.708176,83.411003 241.552567,84.451935 238.307053,86.245041 
	C236.237564,87.388397 234.306290,90.729202 234.256500,93.125122 
	C234.181503,96.732803 236.074661,99.540047 240.281281,101.291306 
	C244.986664,103.250198 247.386658,99.291626 251.000000,99.000000 
M85.023407,10.892035 
	C84.684830,12.120647 84.059677,13.347498 84.052116,14.578145 
	C83.978470,26.561438 83.714279,38.555634 84.132477,50.524776 
	C84.341164,56.497776 88.301598,59.145702 94.711143,58.999950 
	C99.550041,58.889915 103.888031,55.290752 103.944763,50.767948 
	C104.097176,38.619663 104.010475,26.468115 103.981316,14.317952 
	C103.971146,10.080770 101.274086,7.426118 97.793770,6.126843 
	C93.358376,4.471017 87.453133,6.723796 85.023407,10.892035 
M72.050873,98.368210 
	C71.899101,98.435837 71.752525,98.524376 71.593758,98.563843 
	C71.485146,98.590843 71.262566,98.570175 71.255211,98.535721 
	C69.763573,91.552864 69.764061,91.552757 66.995903,91.409279 
	C66.995903,93.230751 67.206367,95.070793 66.954330,96.845131 
	C66.331787,101.227806 68.376328,102.576782 72.366180,102.001419 
	C74.622147,101.676109 76.885849,101.045143 79.133644,101.096443 
	C83.995392,101.207413 88.846947,101.759270 93.708809,101.876808 
	C94.338989,101.892044 95.005486,100.405403 95.655151,99.614441 
	C95.640549,100.041252 95.625938,100.468063 95.611328,100.894875 
	C99.570656,101.281342 103.529991,101.667809 107.998291,102.103958 
	C107.998291,98.414375 108.190430,94.959679 107.911011,91.543564 
	C107.785728,90.011948 106.716103,88.557571 106.075005,87.068146 
	C105.262680,88.541084 104.450348,90.014023 103.559982,91.628456 
	C100.648872,90.596779 97.218246,89.930855 95.426804,94.597504 
	C93.313728,89.842140 81.649330,89.284958 77.846191,93.495209 
	C76.733521,92.678406 75.651344,91.883987 74.569160,91.089569 
	C74.045937,92.359169 73.423889,93.599258 73.032990,94.908371 
	C72.755898,95.836334 72.791153,96.857559 72.050873,98.368210 
M54.056767,87.999107 
	C51.451241,87.999107 48.845715,87.999107 46.247116,87.999107 
	C46.247116,92.939445 46.247116,97.353485 46.247116,102.784386 
	C49.887131,101.886002 53.073471,100.507690 56.271500,100.480019 
	C59.348873,100.453400 62.438332,101.823723 65.808563,102.650429 
	C65.808563,97.033417 65.808563,92.591698 65.808563,88.149979 
	C63.958733,88.723953 62.988514,90.859200 62.221397,90.788574 
	C55.922615,90.208626 56.212284,94.865143 55.738182,98.601715 
	C53.615463,98.172997 51.745548,97.795341 48.800606,97.200562 
	C51.710903,96.076485 53.344475,95.445534 54.978050,94.814590 
	C53.342823,93.847908 51.707596,92.881218 49.335247,91.478775 
	C51.190086,91.264732 52.589626,91.465416 53.493328,90.888885 
	C54.271839,90.392235 54.485287,89.009857 54.056767,87.999107 
M169.756821,91.805763 
	C169.031372,92.488609 168.305939,93.171448 167.580490,93.854294 
	C167.646927,93.442841 167.713364,93.031380 167.779800,92.619926 
	C164.307526,91.999626 160.835236,91.379318 157.355835,90.757736 
	C157.355835,95.845810 157.355835,100.386528 157.355835,104.963379 
	C158.213867,104.963379 158.965347,105.176849 159.172165,104.931396 
	C162.335800,101.176743 165.659683,99.016197 170.837845,101.736969 
	C172.235886,102.471550 176.120773,101.576561 176.461258,100.595566 
	C177.249069,98.325653 177.287949,95.172874 176.219910,93.107574 
	C175.542847,91.798309 172.330429,91.800140 169.756821,91.805763 
M144.950928,100.571472 
	C148.509354,101.164024 152.067764,101.756577 155.778809,102.374542 
	C155.778809,97.992409 155.778809,94.559151 155.778809,89.672882 
	C153.964645,91.499146 152.620010,92.323593 152.107422,93.508102 
	C151.520172,94.865135 151.671509,96.541771 151.501953,98.079559 
	C151.077469,98.031433 150.652969,97.983307 150.228470,97.935181 
	C150.092758,95.686127 149.957047,93.437073 149.821335,91.188026 
	C149.422775,90.939507 149.024216,90.690987 148.625641,90.442474 
	C147.427368,92.037132 146.229095,93.631790 145.183685,95.023026 
	C143.502014,94.145233 141.269806,92.980064 139.037598,91.814903 
	C139.163895,91.497040 139.290176,91.179176 139.416473,90.861320 
	C141.201874,91.169342 142.987274,91.477364 144.783783,91.787300 
	C144.783783,90.433258 144.783783,89.348221 144.783783,86.919144 
	C141.289185,88.117210 136.845917,88.275543 135.713226,90.292786 
	C132.693634,95.670403 139.363037,95.361496 142.005035,97.996887 
	C140.492859,97.996887 139.497757,97.969566 138.504791,98.004105 
	C137.376450,98.043358 136.250046,98.137901 135.072510,98.211548 
	C136.195724,102.376007 138.732010,103.078873 144.950928,100.571472 
M115.258728,101.997307 
	C119.410995,100.711105 119.501717,97.525360 118.607643,94.204712 
	C117.979874,91.873138 116.782555,89.694916 115.575325,86.818604 
	C114.185867,88.239319 112.077316,89.700485 110.975471,91.712860 
	C109.820213,93.822784 108.866020,96.613258 109.302528,98.812874 
	C109.569542,100.158318 112.620316,100.951332 115.258728,101.997307 
M182.153931,90.996315 
	C180.878937,90.996315 179.603928,90.996315 178.367004,90.996315 
	C178.367004,94.924149 178.367004,98.437897 178.367004,101.951645 
	C178.896362,102.056290 179.425720,102.160934 179.955078,102.265587 
	C180.303833,100.943451 180.560715,99.587677 181.028717,98.309189 
	C181.446487,97.167892 182.097458,96.111946 182.645523,95.018341 
	C183.096573,96.049103 183.498245,97.105156 184.010254,98.104698 
	C184.772583,99.593018 185.612823,101.041428 186.419922,102.506828 
	C186.977936,102.266930 187.535950,102.027023 188.093979,101.787125 
	C187.260880,96.891556 189.484543,91.658600 186.059631,86.089546 
	C184.744080,88.210648 183.887268,89.592094 182.153931,90.996315 
M196.868271,101.660339 
	C197.333374,101.185097 198.204086,100.703133 198.196335,100.235718 
	C198.153015,97.620506 198.600861,94.615433 197.444138,92.547058 
	C196.776535,91.353249 192.352615,90.644348 191.474792,91.538574 
	C189.910660,93.131958 188.991196,96.167259 189.175751,98.490425 
	C189.504166,102.624954 193.134705,102.032211 196.868271,101.660339 
M120.011459,92.077271 
	C120.011459,95.351540 120.011459,98.625801 120.011459,101.900070 
	C120.609039,102.032158 121.206619,102.164246 121.804199,102.296333 
	C122.203377,101.053825 122.574417,99.801361 123.009750,98.571640 
	C123.433365,97.375031 123.922821,96.201721 124.383362,95.018181 
	C124.921150,96.124535 125.581741,97.191582 125.952927,98.351257 
	C126.194519,99.106026 125.725418,100.180946 126.104576,100.773262 
	C126.492714,101.379616 127.527023,101.572334 128.278503,101.946106 
	C128.515747,99.395294 129.197037,96.773697 128.806366,94.322975 
	C128.605438,93.062454 126.653786,91.646843 125.201065,91.141853 
	C123.741302,90.634407 121.918694,91.170746 120.011459,92.077271 
M203.019135,97.048195 
	C204.350372,95.754066 205.681595,94.459946 208.002228,92.203995 
	C204.932953,91.592003 202.705948,91.147957 200.330765,90.674362 
	C200.330765,94.901436 200.330765,98.418182 200.330765,101.934929 
	C200.912109,102.037735 201.493454,102.140549 202.074799,102.243355 
	C202.383728,100.797691 202.692657,99.352028 203.019135,97.048195 
z"/>
<path fill="#FFFFFF" opacity="1.000000" stroke="none" 
	d="
M1.000000,27.468657 
	C1.666882,26.521439 2.744009,26.171272 2.939920,25.545309 
	C6.665241,13.642367 20.169666,5.682886 31.244192,5.926514 
	C45.068268,6.230630 58.904125,5.990312 72.734871,6.004265 
	C78.788460,6.010372 81.790344,9.057197 81.989677,15.326555 
	C82.155914,20.554750 77.906212,24.958178 72.507317,24.984600 
	C62.176147,25.035166 51.839577,25.195105 41.514919,24.931189 
	C34.734879,24.757879 28.963745,26.736176 25.298838,32.372269 
	C21.167139,38.726219 21.236313,45.536640 24.821037,52.422268 
	C28.253925,59.016243 33.758762,61.054474 40.707726,61.028099 
	C61.370106,60.949669 82.033691,61.078281 102.694588,60.886250 
	C104.851280,60.866207 107.766937,59.856525 109.014206,58.270741 
	C116.220474,49.108578 123.045815,39.646088 129.971176,30.263912 
	C135.251129,23.110857 140.395859,15.855973 145.774200,8.778188 
	C149.864349,3.395638 157.501205,5.045623 161.340897,11.750143 
	C169.547958,26.080643 177.910583,40.322048 186.999649,55.959373 
	C186.999649,48.348980 186.978317,42.170994 187.005630,35.993225 
	C187.033066,29.789465 189.788971,27.003389 195.848862,27.000824 
	C207.513367,26.995884 219.177872,26.985813 230.842346,27.005016 
	C237.158112,27.015411 240.053528,29.981602 239.998642,36.299767 
	C239.946075,42.353607 236.440948,45.985420 230.609207,45.996708 
	C224.110428,46.009285 217.603119,46.199745 211.116028,45.924160 
	C207.249985,45.759926 205.730927,46.831055 205.914444,50.939678 
	C206.226440,57.924442 206.015411,64.933289 205.995224,71.931923 
	C205.980392,77.074173 202.601868,80.914047 197.496597,80.950394 
	C180.167358,81.073799 162.836243,81.068916 145.506912,80.952225 
	C140.763519,80.920288 136.994247,76.441772 137.001877,71.481247 
	C137.012039,64.892525 140.584259,61.280586 147.686249,61.035534 
	C152.845810,60.857502 158.019028,60.901188 163.181290,61.034447 
	C166.738861,61.126286 168.086517,59.124966 166.652496,56.411743 
	C162.243088,48.068954 157.369080,39.971729 152.369461,31.244637 
	C149.550507,34.400021 146.962952,36.873192 144.872116,39.712170 
	C137.057526,50.322968 129.551254,61.163017 121.635429,71.696205 
	C117.225021,77.564911 110.925743,80.857559 103.600739,80.922905 
	C80.106979,81.132492 56.610168,81.002663 33.114536,80.997696 
	C20.986984,80.995132 7.357524,73.355331 3.562852,60.159466 
	C3.182312,58.836143 2.300853,57.656868 1.325934,56.705372 
	C1.000000,47.312439 1.000000,37.624874 1.000000,27.468657 
z"/>
<path fill="#FFFFFF" opacity="1.000000" stroke="none" 
	d="
M251.000000,20.539364 
	C244.543930,26.599239 236.724075,24.900732 229.274948,24.973513 
	C218.455750,25.079214 207.634674,25.027546 196.814575,24.990555 
	C190.290726,24.968250 186.980057,21.636806 187.002167,15.259456 
	C187.025253,8.600189 189.731949,6.004683 196.691605,6.001804 
	C211.340515,5.995743 225.991180,6.124357 240.637161,5.917105 
	C244.551941,5.861707 247.699692,6.837942 250.687042,9.291698 
	C251.000000,12.692909 251.000000,16.385818 251.000000,20.539364 
z"/>
<path fill="#FDFDFD" opacity="1.000000" stroke="none" 
	d="
M251.000000,98.541931 
	C247.386658,99.291626 244.986664,103.250198 240.281281,101.291306 
	C236.074661,99.540047 234.181503,96.732803 234.256500,93.125122 
	C234.306290,90.729202 236.237564,87.388397 238.307053,86.245041 
	C241.552567,84.451935 245.708176,83.411003 248.849152,87.336021 
	C249.250778,87.837906 249.864777,88.169830 250.690186,88.290245 
	C251.000000,91.361290 251.000000,94.722572 251.000000,98.541931 
z"/>
<path fill="#FFFFFF" opacity="1.000000" stroke="none" 
	d="
M85.192238,10.502531 
	C87.453133,6.723796 93.358376,4.471017 97.793770,6.126843 
	C101.274086,7.426118 103.971146,10.080770 103.981316,14.317952 
	C104.010475,26.468115 104.097176,38.619663 103.944763,50.767948 
	C103.888031,55.290752 99.550041,58.889915 94.711143,58.999950 
	C88.301598,59.145702 84.341164,56.497776 84.132477,50.524776 
	C83.714279,38.555634 83.978470,26.561438 84.052116,14.578145 
	C84.059677,13.347498 84.684830,12.120647 85.192238,10.502531 
z"/>
<path fill="#FDFDFD" opacity="1.000000" stroke="none" 
	d="
M72.368927,98.102684 
	C72.791153,96.857559 72.755898,95.836334 73.032990,94.908371 
	C73.423889,93.599258 74.045937,92.359169 74.569160,91.089569 
	C75.651344,91.883987 76.733521,92.678406 77.846191,93.495209 
	C81.649330,89.284958 93.313728,89.842140 95.427185,94.598747 
	C97.218246,89.930855 100.648872,90.596779 103.559982,91.628456 
	C104.450348,90.014023 105.262680,88.541084 106.075005,87.068146 
	C106.716103,88.557571 107.785728,90.011948 107.911011,91.543564 
	C108.190430,94.959679 107.998291,98.414375 107.998291,102.103958 
	C103.529991,101.667809 99.570656,101.281342 95.611328,100.894875 
	C95.625938,100.468063 95.640549,100.041252 95.655151,99.614441 
	C95.005486,100.405403 94.338989,101.892044 93.708809,101.876808 
	C88.846947,101.759270 83.995392,101.207413 79.133644,101.096443 
	C76.885849,101.045143 74.622147,101.676109 72.366180,102.001419 
	C68.376328,102.576782 66.331787,101.227806 66.954330,96.845131 
	C67.206367,95.070793 66.995903,93.230751 66.995903,91.409279 
	C69.764061,91.552757 69.763573,91.552864 71.255211,98.535721 
	C71.262566,98.570175 71.485146,98.590843 71.593758,98.563843 
	C71.752525,98.524376 71.899101,98.435837 72.368927,98.102684 
z"/>
<path fill="#FDFDFD" opacity="1.000000" stroke="none" 
	d="
M54.502666,88.009094 
	C54.485287,89.009857 54.271839,90.392235 53.493328,90.888885 
	C52.589626,91.465416 51.190086,91.264732 49.335247,91.478775 
	C51.707596,92.881218 53.342823,93.847908 54.978050,94.814590 
	C53.344475,95.445534 51.710903,96.076485 48.800606,97.200562 
	C51.745548,97.795341 53.615463,98.172997 55.738182,98.601715 
	C56.212284,94.865143 55.922615,90.208626 62.221397,90.788574 
	C62.988514,90.859200 63.958733,88.723953 65.808563,88.149979 
	C65.808563,92.591698 65.808563,97.033417 65.808563,102.650429 
	C62.438332,101.823723 59.348873,100.453400 56.271500,100.480019 
	C53.073471,100.507690 49.887131,101.886002 46.247116,102.784386 
	C46.247116,97.353485 46.247116,92.939445 46.247116,87.999107 
	C48.845715,87.999107 51.451241,87.999107 54.502666,88.009094 
z"/>
<path fill="#FDFDFD" opacity="1.000000" stroke="none" 
	d="
M170.005951,91.509872 
	C172.330429,91.800140 175.542847,91.798309 176.219910,93.107574 
	C177.287949,95.172874 177.249069,98.325653 176.461258,100.595566 
	C176.120773,101.576561 172.235886,102.471550 170.837845,101.736969 
	C165.659683,99.016197 162.335800,101.176743 159.172165,104.931396 
	C158.965347,105.176849 158.213867,104.963379 157.355835,104.963379 
	C157.355835,100.386528 157.355835,95.845810 157.355835,90.757736 
	C160.835236,91.379318 164.307526,91.999626 167.779800,92.619926 
	C167.713364,93.031380 167.646927,93.442841 167.580490,93.854294 
	C168.305939,93.171448 169.031372,92.488609 170.005951,91.509872 
z"/>
<path fill="#FDFDFD" opacity="1.000000" stroke="none" 
	d="
M144.588623,100.774521 
	C138.732010,103.078873 136.195724,102.376007 135.072510,98.211548 
	C136.250046,98.137901 137.376450,98.043358 138.504791,98.004105 
	C139.497757,97.969566 140.492859,97.996887 142.005035,97.996887 
	C139.363037,95.361496 132.693634,95.670403 135.713226,90.292786 
	C136.845917,88.275543 141.289185,88.117210 144.783783,86.919144 
	C144.783783,89.348221 144.783783,90.433258 144.783783,91.787300 
	C142.987274,91.477364 141.201874,91.169342 139.416473,90.861320 
	C139.290176,91.179176 139.163895,91.497040 139.037598,91.814903 
	C141.269806,92.980064 143.502014,94.145233 145.183685,95.023026 
	C146.229095,93.631790 147.427368,92.037132 148.625641,90.442474 
	C149.024216,90.690987 149.422775,90.939507 149.821335,91.188026 
	C149.957047,93.437073 150.092758,95.686127 150.228470,97.935181 
	C150.652969,97.983307 151.077469,98.031433 151.501953,98.079559 
	C151.671509,96.541771 151.520172,94.865135 152.107422,93.508102 
	C152.620010,92.323593 153.964645,91.499146 155.778809,89.672882 
	C155.778809,94.559151 155.778809,97.992409 155.778809,102.374542 
	C152.067764,101.756577 148.509354,101.164024 144.588623,100.774521 
z"/>
<path fill="#FDFDFD" opacity="1.000000" stroke="none" 
	d="
M114.839806,101.994873 
	C112.620316,100.951332 109.569542,100.158318 109.302528,98.812874 
	C108.866020,96.613258 109.820213,93.822784 110.975471,91.712860 
	C112.077316,89.700485 114.185867,88.239319 115.575325,86.818604 
	C116.782555,89.694916 117.979874,91.873138 118.607643,94.204712 
	C119.501717,97.525360 119.410995,100.711105 114.839806,101.994873 
z"/>
<path fill="#FDFDFD" opacity="1.000000" stroke="none" 
	d="
M182.592194,90.984924 
	C183.887268,89.592094 184.744080,88.210648 186.059631,86.089546 
	C189.484543,91.658600 187.260880,96.891556 188.093979,101.787125 
	C187.535950,102.027023 186.977936,102.266930 186.419922,102.506828 
	C185.612823,101.041428 184.772583,99.593018 184.010254,98.104698 
	C183.498245,97.105156 183.096573,96.049103 182.645508,95.018341 
	C182.097458,96.111946 181.446487,97.167892 181.028717,98.309189 
	C180.560715,99.587677 180.303833,100.943451 179.955078,102.265587 
	C179.425720,102.160934 178.896362,102.056290 178.367004,101.951645 
	C178.367004,98.437897 178.367004,94.924149 178.367004,90.996315 
	C179.603928,90.996315 180.878937,90.996315 182.592194,90.984924 
z"/>
<path fill="#FDFDFD" opacity="1.000000" stroke="none" 
	d="
M196.479370,101.818130 
	C193.134705,102.032211 189.504166,102.624954 189.175751,98.490425 
	C188.991196,96.167259 189.910660,93.131958 191.474792,91.538574 
	C192.352615,90.644348 196.776535,91.353249 197.444138,92.547058 
	C198.600861,94.615433 198.153015,97.620506 198.196335,100.235718 
	C198.204086,100.703133 197.333374,101.185097 196.479370,101.818130 
z"/>
<path fill="#FDFDFD" opacity="1.000000" stroke="none" 
	d="
M120.133278,91.663475 
	C121.918694,91.170746 123.741302,90.634407 125.201065,91.141853 
	C126.653786,91.646843 128.605438,93.062454 128.806366,94.322975 
	C129.197037,96.773697 128.515747,99.395294 128.278503,101.946106 
	C127.527023,101.572334 126.492714,101.379616 126.104576,100.773262 
	C125.725418,100.180946 126.194519,99.106026 125.952927,98.351257 
	C125.581741,97.191582 124.921150,96.124535 124.383362,95.018181 
	C123.922821,96.201721 123.433365,97.375031 123.009750,98.571640 
	C122.574417,99.801361 122.203377,101.053825 121.804199,102.296333 
	C121.206619,102.164246 120.609039,102.032158 120.011459,101.900070 
	C120.011459,98.625801 120.011459,95.351540 120.133278,91.663475 
z"/>
<path fill="#FDFDFD" opacity="1.000000" stroke="none" 
	d="
M203.010345,97.477280 
	C202.692657,99.352028 202.383728,100.797691 202.074799,102.243355 
	C201.493454,102.140549 200.912109,102.037735 200.330765,101.934929 
	C200.330765,98.418182 200.330765,94.901436 200.330765,90.674362 
	C202.705948,91.147957 204.932953,91.592003 208.002228,92.203995 
	C205.681595,94.459946 204.350372,95.754066 203.010345,97.477280 
z"/>
</svg>