<?xml version="1.0" standalone="no"?>
<!DOCTYPE svg PUBLIC "-//W3C//DTD SVG 20010904//EN"
 "http://www.w3.org/TR/2001/REC-SVG-20010904/DTD/svg10.dtd">
<svg version="1.0" xmlns="http://www.w3.org/2000/svg"
 width="150.000000pt" height="89.000000pt" viewBox="0 0 150.000000 89.000000"
 preserveAspectRatio="xMidYMid meet">
<metadata>
Created by potrace 1.16, written by Peter Selinger 2001-2019
</metadata>
<g transform="translate(0.000000,89.000000) scale(0.100000,-0.100000)"
fill="#000000" stroke="none">
<path d="M70 700 l0 -120 -25 0 c-22 0 -25 -4 -25 -40 l0 -40 75 0 75 0 0
-120 0 -120 50 0 50 0 0 -130 0 -130 50 0 50 0 0 85 0 85 60 0 60 0 0 -85 0
-85 50 0 50 0 0 195 0 195 -50 0 -50 0 0 -70 0 -70 -60 0 -60 0 0 69 c0 59 3
71 18 75 11 4 30 19 43 34 l24 27 -25 -22 c-33 -29 -73 -43 -121 -43 l-39 0 0
-60 0 -60 -45 0 -45 0 0 115 0 115 25 0 c23 0 25 4 25 40 0 36 -2 40 -25 40
-21 0 -25 5 -25 30 l0 29 83 4 82 3 -82 2 -82 2 -4 88 c-2 72 -3 66 -5 -40
l-2 -128 25 0 c21 0 25 -5 25 -30 l0 -30 -95 0 -95 0 0 30 c0 25 4 30 25 30
l25 0 0 125 c0 69 -2 125 -5 125 -3 0 -5 -54 -5 -120z"/>
<path d="M1218 293 c-3 -18 -28 -24 -100 -23 l-48 1 0 -56 c0 -48 2 -55 20
-55 16 0 20 7 20 35 0 44 25 48 33 6 8 -37 31 -50 80 -44 l37 5 0 74 c0 66 -2
74 -19 74 -11 0 -21 -8 -23 -17z"/>
</g>
</svg>
